<?xml version="1.0" encoding="utf-8"?>
<!-- Generator: Adobe Illustrator 26.0.1, SVG Export Plug-In . SVG Version: 6.00 Build 0)  -->
<svg version="1.1" id="emoji" xmlns="http://www.w3.org/2000/svg" xmlns:xlink="http://www.w3.org/1999/xlink" x="0px" y="0px"
	 viewBox="0 0 72 72" style="enable-background:new 0 0 72 72;" xml:space="preserve">
<style type="text/css">
	.st0{fill:#D22F27;}
	.st1{fill:#D0CFCE;}
	.st2{fill:#9B9B9A;}
	.st3{fill:#FFFFFF;}
	.st4{fill:none;stroke:#000000;stroke-width:2;stroke-linecap:round;stroke-linejoin:round;stroke-miterlimit:2;}
	.st5{fill:none;stroke:#000000;stroke-width:2;stroke-miterlimit:2;}
	.st6{fill:none;stroke:#000000;stroke-miterlimit:10;}
	.st7{fill:none;stroke:#000000;stroke-width:2;stroke-linecap:round;stroke-linejoin:round;stroke-miterlimit:10;}
</style>
<g id="color">
	<path class="st0" d="M34,16.1v-2.5c0-1.4,1.1-2.5,2.5-2.5l0,0c1.4,0,2.5,1.1,2.5,2.5v2.5"/>
	<path class="st1" d="M13.5,41.1L13.5,41.1c-1.4,0-2.5-1.1-2.5-2.5v-8c0-1.4,1.1-2.5,2.5-2.5l0,0c1.4,0,2.5,1.1,2.5,2.5v8
		C16,40,14.9,41.1,13.5,41.1z"/>
	<path class="st1" d="M58.5,41.1L58.5,41.1c1.4,0,2.5-1.1,2.5-2.5v-8c0-1.4-1.1-2.5-2.5-2.5l0,0c-1.4,0-2.5,1.1-2.5,2.5v8
		C56,40,57.1,41.1,58.5,41.1z"/>
	<path class="st1" d="M47.5,56.1H24.5c-4.7,0-8.5-3.8-8.5-8.5V24.7c0-4.7,3.8-8.5,8.5-8.5h22.9c4.7,0,8.5,3.8,8.5,8.5v22.9
		C56,52.3,52.2,56.1,47.5,56.1z"/>
	<path class="st2" d="M35.5,56.1h13.3c4,0,7.2-3.8,7.2-8.5V24.7c0-4.7-3.2-8.5-7.2-8.5h-2.4"/>
	<g>
		<path class="st3" d="M44.5,48.5c-5.6,1.1-11.4,1.1-17.1,0c-2.2-0.4-4-2.8-4-5c0,0,0,0,0,0c0-2.2,1.8-3.5,4-3
			c5.6,1.1,11.4,1.1,17.1,0c2.2-0.4,4,0.8,4,3c0,0,0,0,0,0C48.5,45.7,46.7,48,44.5,48.5z"/>
	</g>
</g>
<g id="hair">
</g>
<g id="skin">
</g>
<g id="skin-shadow">
</g>
<g id="line">
	<path class="st4" d="M36.5,21.5"/>
	<path class="st4" d="M34,16v-2.5c0-1.4,1.1-2.5,2.5-2.5l0,0c1.4,0,2.5,1.1,2.5,2.5V16"/>
	<path class="st4" d="M47.5,56H24.5c-4.7,0-8.5-3.8-8.5-8.5V24.5c0-4.7,3.8-8.5,8.5-8.5h22.9c4.7,0,8.5,3.8,8.5,8.5v22.9
		C56,52.2,52.2,56,47.5,56z"/>
	<g>
		<path class="st5" d="M44.5,48.5c-5.6,1.1-11.4,1.1-17.1,0c-2.2-0.4-4-2.8-4-5l0,0c0-2.2,1.8-3.5,4-3c5.6,1.1,11.4,1.1,17.1,0
			c2.2-0.4,4,0.8,4,3l0,0C48.5,45.7,46.7,48,44.5,48.5z"/>
	</g>
	<path class="st4" d="M13.5,41L13.5,41c-1.4,0-2.5-1.1-2.5-2.5v-8c0-1.4,1.1-2.5,2.5-2.5l0,0c1.4,0,2.5,1.1,2.5,2.5v8
		C16,39.9,14.9,41,13.5,41z"/>
	<path class="st4" d="M58.5,41L58.5,41c1.4,0,2.5-1.1,2.5-2.5v-8c0-1.4-1.1-2.5-2.5-2.5l0,0c-1.4,0-2.5,1.1-2.5,2.5v8
		C56,39.9,57.1,41,58.5,41z"/>
	<path class="st6" d="M36.5,37.5"/>
	<path class="st6" d="M36.5,57.5"/>
	<line class="st4" x1="28" y1="41" x2="28" y2="48"/>
	<line class="st4" x1="33" y1="42" x2="33" y2="49"/>
	<line class="st4" x1="38" y1="42" x2="38" y2="49"/>
	<line class="st4" x1="43" y1="41" x2="43" y2="48"/>
</g>
<g>
	<path class="st0" d="M27.8,26.9c-1.2-3.1-5.9-3.2-5.6,1.2c0,0.6,0.3,1.2,0.6,1.6l4.8,5.8l0,0l4.7-5.7c0.5-0.6,0.8-1.4,0.8-2.3
		c-0.1-4-4.6-3.7-5.6-0.7"/>
	<path class="st0" d="M45.4,26.9c-1.1-3.1-5.8-3.2-5.5,1.2c0,0.6,0.3,1.2,0.6,1.6l4.8,5.8l0,0l4.7-5.7c0.5-0.6,0.8-1.4,0.8-2.3
		c-0.1-4-4.6-3.7-5.5-0.7"/>
	<g id="line_00000054961167401047265100000013568200128879458732_">
		<path class="st7" d="M47.5,42.5"/>
		<path class="st7" d="M25.5,42.5"/>
		<path class="st7" d="M27.8,26.9c-1.2-3.1-5.9-3.2-5.6,1.2c0,0.6,0.3,1.2,0.6,1.6l4.8,5.8l0,0l4.7-5.7c0.5-0.6,0.8-1.4,0.8-2.3
			c-0.1-4-4.6-3.7-5.6-0.7"/>
		<path class="st7" d="M45.4,26.9c-1.1-3.1-5.8-3.2-5.5,1.2c0,0.6,0.3,1.2,0.6,1.6l4.8,5.8l0,0l4.7-5.7c0.5-0.6,0.8-1.4,0.8-2.3
			c-0.1-4-4.6-3.7-5.5-0.7"/>
	</g>
</g>
<path class="st4" d="M30.2,29"/>
</svg>
